<mxfile host="app.diagrams.net" agent="Mozilla/5.0 (X11; Linux x86_64) AppleWebKit/537.36 (KHTML, like Gecko) Chrome/128.0.0.0 Safari/537.36" version="26.0.6">
  <diagram name="Page-1" id="wOB_9WMUOYio087HsXXo">
    <mxGraphModel dx="1597" dy="889" grid="1" gridSize="10" guides="1" tooltips="1" connect="1" arrows="1" fold="1" page="1" pageScale="1" pageWidth="827" pageHeight="1169" math="0" shadow="0">
      <root>
        <mxCell id="0" />
        <mxCell id="1" parent="0" />
        <mxCell id="BNkQrNhKQa_8A1IRFI8Z-1" value="Big picture:&lt;br&gt;Robots learn many tasks in complex environment&amp;nbsp;" style="rounded=0;whiteSpace=wrap;html=1;" parent="1" vertex="1">
          <mxGeometry x="240" y="140" width="336" height="60" as="geometry" />
        </mxCell>
        <mxCell id="BNkQrNhKQa_8A1IRFI8Z-2" value="Classical Method" style="rounded=0;whiteSpace=wrap;html=1;" parent="1" vertex="1">
          <mxGeometry x="200" y="250" width="180" height="60" as="geometry" />
        </mxCell>
        <mxCell id="BNkQrNhKQa_8A1IRFI8Z-3" value="Learning Method" style="rounded=0;whiteSpace=wrap;html=1;" parent="1" vertex="1">
          <mxGeometry x="430" y="250" width="180" height="60" as="geometry" />
        </mxCell>
        <mxCell id="BNkQrNhKQa_8A1IRFI8Z-4" value="Supervise Learning" style="rounded=0;whiteSpace=wrap;html=1;" parent="1" vertex="1">
          <mxGeometry x="110" y="360" width="180" height="60" as="geometry" />
        </mxCell>
        <mxCell id="BNkQrNhKQa_8A1IRFI8Z-5" value="Reinforcement Learning" style="rounded=0;whiteSpace=wrap;html=1;" parent="1" vertex="1">
          <mxGeometry x="324" y="360" width="180" height="60" as="geometry" />
        </mxCell>
        <mxCell id="BNkQrNhKQa_8A1IRFI8Z-6" value="Deep Generative Model -&lt;br&gt;Diffusion Model" style="rounded=0;whiteSpace=wrap;html=1;" parent="1" vertex="1">
          <mxGeometry x="530" y="360" width="180" height="60" as="geometry" />
        </mxCell>
        <mxCell id="BNkQrNhKQa_8A1IRFI8Z-7" value="Constraints Satisfication" style="rounded=0;whiteSpace=wrap;html=1;" parent="1" vertex="1">
          <mxGeometry x="110" y="470" width="180" height="60" as="geometry" />
        </mxCell>
        <mxCell id="BNkQrNhKQa_8A1IRFI8Z-8" value="Generalization" style="rounded=0;whiteSpace=wrap;html=1;" parent="1" vertex="1">
          <mxGeometry x="324" y="470" width="180" height="60" as="geometry" />
        </mxCell>
        <mxCell id="BNkQrNhKQa_8A1IRFI8Z-9" value="Optimality" style="rounded=0;whiteSpace=wrap;html=1;" parent="1" vertex="1">
          <mxGeometry x="530" y="470" width="180" height="60" as="geometry" />
        </mxCell>
        <mxCell id="BNkQrNhKQa_8A1IRFI8Z-11" value="&lt;b&gt;Our research - Physics-informed generative model&lt;/b&gt;" style="rounded=0;whiteSpace=wrap;html=1;" parent="1" vertex="1">
          <mxGeometry x="246" y="590" width="336" height="60" as="geometry" />
        </mxCell>
      </root>
    </mxGraphModel>
  </diagram>
</mxfile>
